<svg width="16" height="17" viewBox="0 0 16 17" fill="none" xmlns="http://www.w3.org/2000/svg">
<path d="M13.5998 1.78135H12.7998V0.181335H11.1998V1.78135H4.79981V0.181335H3.1998V1.78135H2.39982C1.51583 1.78135 0.80783 2.49733 0.80783 3.38136L0.799805 14.5813C0.799805 15.4653 1.51579 16.1813 2.39982 16.1813H13.5998C14.4838 16.1813 15.1998 15.4653 15.1998 14.5813V3.38132C15.1998 2.49733 14.4838 1.78135 13.5998 1.78135ZM13.5998 14.5813H2.39982V5.78132H13.5998V14.5813Z" fill="black"/>
<path d="M11.6236 8.22933L10.7756 7.38135L6.87163 11.2854L5.17566 9.58935L4.32764 10.4373L6.87163 12.9813L11.6236 8.22933Z" fill="black"/>
</svg>
