<svg width="13" height="17" viewBox="0 0 13 17" fill="none" xmlns="http://www.w3.org/2000/svg">
<path d="M6.28385 0.0888672C3.0887 0.0888672 0.489258 2.6883 0.489258 5.88343C0.489258 9.84868 5.67485 15.6699 5.89563 15.9158C6.10301 16.1467 6.46507 16.1463 6.67207 15.9158C6.89285 15.6699 12.0784 9.84868 12.0784 5.88343C12.0784 2.6883 9.47898 0.0888672 6.28385 0.0888672ZM6.28385 8.79884C4.67629 8.79884 3.36848 7.49099 3.36848 5.88343C3.36848 4.27587 4.67632 2.96805 6.28385 2.96805C7.89138 2.96805 9.19919 4.2759 9.19919 5.88346C9.19919 7.49102 7.89138 8.79884 6.28385 8.79884Z" fill="black"/>
</svg>
