<svg width="41" height="41" viewBox="0 0 41 41" fill="none" xmlns="http://www.w3.org/2000/svg">
<rect x="0.218262" y="0.857056" width="40" height="39.7456" rx="15" fill="white"/>
<g clip-path="url(#clip0_148_561)">
<path d="M20.2185 14.1496C22.3766 14.1496 22.6321 14.159 23.4808 14.1966C24.2696 14.2311 24.6955 14.3628 24.9795 14.4725C25.3549 14.6167 25.6263 14.7922 25.9071 15.0713C26.191 15.3534 26.3646 15.6199 26.5097 15.9929C26.6201 16.2751 26.7526 16.7014 26.7873 17.4821C26.8252 18.3285 26.8347 18.5824 26.8347 20.7236C26.8347 22.868 26.8252 23.1219 26.7873 23.9652C26.7526 24.7489 26.6201 25.1722 26.5097 25.4543C26.3646 25.8274 26.1879 26.097 25.9071 26.376C25.6231 26.6582 25.3549 26.8306 24.9795 26.9748C24.6955 27.0845 24.2665 27.2162 23.4808 27.2507C22.629 27.2883 22.3734 27.2977 20.2185 27.2977C18.0605 27.2977 17.8049 27.2883 16.9562 27.2507C16.1674 27.2162 15.7415 27.0845 15.4576 26.9748C15.0821 26.8306 14.8108 26.655 14.53 26.376C14.246 26.0939 14.0725 25.8274 13.9274 25.4543C13.8169 25.1722 13.6844 24.7458 13.6497 23.9652C13.6119 23.1188 13.6024 22.8648 13.6024 20.7236C13.6024 18.5793 13.6119 18.3254 13.6497 17.4821C13.6844 16.6983 13.8169 16.2751 13.9274 15.9929C14.0725 15.6199 14.2492 15.3503 14.53 15.0713C14.8139 14.7891 15.0821 14.6167 15.4576 14.4725C15.7415 14.3628 16.1706 14.2311 16.9562 14.1966C17.8049 14.159 18.0605 14.1496 20.2185 14.1496ZM20.2185 12.7043C18.0258 12.7043 17.7513 12.7138 16.8899 12.7514C16.0318 12.789 15.4418 12.9269 14.9307 13.1244C14.3975 13.3313 13.9463 13.6041 13.4983 14.0524C13.0471 14.4976 12.7726 14.9459 12.5644 15.4725C12.3656 15.9835 12.2268 16.5666 12.1889 17.4194C12.1511 18.2783 12.1416 18.5511 12.1416 20.7299C12.1416 22.9087 12.1511 23.1815 12.1889 24.0373C12.2268 24.89 12.3656 25.4763 12.5644 25.9841C12.7726 26.5139 13.0471 26.9622 13.4983 27.4074C13.9463 27.8526 14.3975 28.1285 14.9275 28.3322C15.4418 28.5297 16.0286 28.6677 16.8868 28.7053C17.7481 28.7429 18.0226 28.7523 20.2154 28.7523C22.4081 28.7523 22.6826 28.7429 23.5439 28.7053C24.4021 28.6677 24.9921 28.5297 25.5032 28.3322C26.0333 28.1285 26.4844 27.8526 26.9325 27.4074C27.3805 26.9622 27.6581 26.5139 27.8632 25.9873C28.062 25.4763 28.2008 24.8932 28.2387 24.0404C28.2765 23.1846 28.286 22.9118 28.286 20.733C28.286 18.5542 28.2765 18.2815 28.2387 17.4256C28.2008 16.5729 28.062 15.9867 27.8632 15.4788C27.6644 14.9459 27.3899 14.4976 26.9388 14.0524C26.4908 13.6072 26.0396 13.3313 25.5095 13.1276C24.9953 12.9301 24.4084 12.7921 23.5503 12.7545C22.6858 12.7138 22.4113 12.7043 20.2185 12.7043Z" fill="#25AAE1"/>
<path d="M20.2187 16.6074C17.9281 16.6074 16.0698 18.4539 16.0698 20.7299C16.0698 23.0059 17.9281 24.8524 20.2187 24.8524C22.5093 24.8524 24.3676 23.0059 24.3676 20.7299C24.3676 18.4539 22.5093 16.6074 20.2187 16.6074ZM20.2187 23.4041C18.7327 23.4041 17.5275 22.2065 17.5275 20.7299C17.5275 19.2533 18.7327 18.0558 20.2187 18.0558C21.7047 18.0558 22.91 19.2533 22.91 20.7299C22.91 22.2065 21.7047 23.4041 20.2187 23.4041Z" fill="#25AAE1"/>
<path d="M25.5002 16.4444C25.5002 16.9773 25.0648 17.4068 24.5316 17.4068C23.9952 17.4068 23.563 16.9742 23.563 16.4444C23.563 15.9114 23.9984 15.4819 24.5316 15.4819C25.0648 15.4819 25.5002 15.9146 25.5002 16.4444Z" fill="#25AAE1"/>
</g>
<defs>
<clipPath id="clip0_148_561">
<rect width="16.1538" height="16.0511" fill="white" transform="translate(12.1416 12.7043)"/>
</clipPath>
</defs>
</svg>
