<svg width="41" height="41" viewBox="0 0 41 41" fill="none" xmlns="http://www.w3.org/2000/svg">
<rect x="0.138184" y="0.855469" width="40" height="39.7456" rx="15" fill="white"/>
<path d="M16.1877 17.3457V26.8555H13.6476V17.3457H16.1877ZM13.4894 14.8672C13.4894 14.498 13.6183 14.1934 13.8762 13.9531C14.134 13.7129 14.4797 13.5928 14.9133 13.5928C15.341 13.5928 15.6838 13.7129 15.9416 13.9531C16.2053 14.1934 16.3371 14.498 16.3371 14.8672C16.3371 15.2363 16.2053 15.541 15.9416 15.7812C15.6838 16.0215 15.341 16.1416 14.9133 16.1416C14.4797 16.1416 14.134 16.0215 13.8762 15.7812C13.6183 15.541 13.4894 15.2363 13.4894 14.8672ZM21.118 19.376V26.8555H18.5867V17.3457H20.9598L21.118 19.376ZM20.7488 21.7666H20.0633C20.0633 21.0635 20.1541 20.4307 20.3358 19.8682C20.5174 19.2998 20.7723 18.8164 21.1004 18.418C21.4285 18.0137 21.8182 17.7061 22.2694 17.4951C22.7264 17.2783 23.2362 17.1699 23.7987 17.1699C24.244 17.1699 24.6512 17.2344 25.0203 17.3633C25.3895 17.4922 25.7059 17.6973 25.9696 17.9785C26.2391 18.2598 26.4442 18.6318 26.5848 19.0947C26.7313 19.5576 26.8045 20.123 26.8045 20.791V26.8555H24.2557V20.7822C24.2557 20.3604 24.1971 20.0322 24.0799 19.7979C23.9627 19.5635 23.7899 19.3994 23.5613 19.3057C23.3387 19.2061 23.0633 19.1562 22.7352 19.1562C22.3953 19.1562 22.0994 19.2236 21.8475 19.3584C21.6014 19.4932 21.3963 19.6807 21.2322 19.9209C21.074 20.1553 20.9539 20.4307 20.8719 20.7471C20.7899 21.0635 20.7488 21.4033 20.7488 21.7666Z" fill="#25AAE1"/>
</svg>
